# Blender v3.5.0 OBJ File: ''
# www.blender.org
mtllib Egg.mtl
o 立方体
v -0.275102 0.160694 0.257689
v -0.428544 2.099951 0.411131
v -0.275102 0.160694 -0.257689
v -0.428544 2.099951 -0.411131
v 0.275102 0.160694 0.257689
v 0.428544 2.099951 0.411131
v 0.275102 0.160694 -0.257689
v 0.428544 2.099951 -0.411131
v -0.674544 0.842297 0.657131
v -0.674544 0.842297 -0.657131
v 0.674544 0.842297 -0.657131
v 0.674544 0.842297 0.657131
v 0.000000 0.160694 -0.467410
v 0.000000 2.099951 -0.671999
v 0.000000 0.160694 0.467410
v 0.000000 2.099951 0.671999
v 0.000000 0.842297 1.000000
v 0.000000 0.842297 -1.000000
v -0.467410 0.160694 0.000000
v -0.671999 2.099951 0.000000
v 0.467410 0.160694 0.000000
v 0.671999 2.099951 0.000000
v 1.000000 0.842297 0.000000
v -1.000000 0.842297 0.000000
v 0.000000 2.511999 0.000000
v 0.000000 0.028010 0.000000
v -0.674544 1.440063 0.657131
v -0.674544 1.440063 -0.657131
v 0.674544 1.440063 -0.657131
v 0.674544 1.440063 0.657131
v 0.000000 1.440063 1.000000
v 0.000000 1.440063 -1.000000
v 1.000000 1.440063 0.000000
v -1.000000 1.440063 0.000000
v -0.541823 0.452579 -0.524410
v 0.541823 0.452579 -0.524410
v 0.541823 0.452579 0.524410
v -0.541823 0.452579 0.524410
v 0.000000 0.452579 -0.823038
v 0.000000 0.452579 0.823038
v -0.823038 0.452579 0.000000
v 0.823038 0.452579 0.000000
v -0.233705 0.028010 0.000000
v -0.318766 2.379574 0.000000
v 0.318766 2.379574 0.000000
v 0.233705 0.028010 0.000000
v 0.000000 2.379574 0.318766
v 0.000000 0.028010 0.233705
v -0.158249 0.028010 0.140837
v -0.194232 2.379574 0.227219
v 0.194232 2.379574 0.227219
v 0.158249 0.028010 0.140837
v 0.000000 2.379574 -0.318766
v 0.000000 0.028010 -0.233705
v -0.194232 2.379574 -0.227219
v -0.158249 0.028010 -0.140837
v 0.158249 0.028010 -0.140837
v 0.194232 2.379574 -0.227219
vt 0.500000 0.312500
vt 0.437500 0.375000
vt 0.437500 0.312500
vt 0.500000 0.812500
vt 0.437500 0.875000
vt 0.437500 0.812500
vt 0.760502 0.251662
vt 0.698002 0.314162
vt 0.698002 0.251662
vt 0.250000 0.687500
vt 0.187500 0.750000
vt 0.187500 0.687500
vt 0.562500 0.812500
vt 0.625000 0.875000
vt 0.562500 0.875000
vt 0.327952 0.450778
vt 0.390452 0.513278
vt 0.327952 0.513278
vt 0.702104 0.133663
vt 0.764604 0.196163
vt 0.702104 0.196163
vt 0.687500 0.562500
vt 0.750000 0.625000
vt 0.687500 0.625000
vt 0.500000 0.062500
vt 0.437500 0.125000
vt 0.437500 0.062500
vt 0.500000 0.562500
vt 0.437500 0.625000
vt 0.437500 0.562500
vt 0.885502 0.126662
vt 0.823002 0.189162
vt 0.823002 0.126662
vt 0.375000 0.562500
vt 0.312500 0.625000
vt 0.312500 0.562500
vt 0.562500 0.562500
vt 0.625000 0.625000
vt 0.562500 0.625000
vt 0.327952 0.200778
vt 0.390452 0.263278
vt 0.327952 0.263278
vt 0.700778 0.130764
vt 0.638278 0.193264
vt 0.638278 0.130764
vt 0.699028 0.133663
vt 0.636528 0.196163
vt 0.636528 0.133663
vt 0.697277 0.137465
vt 0.634777 0.199965
vt 0.634777 0.137465
vt 0.695527 0.140364
vt 0.633027 0.202864
vt 0.633027 0.140364
vt 0.778819 0.116160
vt 0.716319 0.178660
vt 0.716319 0.116160
vt 0.770067 0.113260
vt 0.707567 0.175760
vt 0.707567 0.113260
vt 0.784070 0.117609
vt 0.721570 0.180109
vt 0.721570 0.117609
vt 0.787571 0.119961
vt 0.725071 0.182461
vt 0.725071 0.119961
vt 0.784070 0.242609
vt 0.721570 0.242609
vt 0.700778 0.188861
vt 0.638278 0.251361
vt 0.638278 0.188861
vt 0.812500 0.562500
vt 0.750000 0.562500
vt 0.125000 0.562500
vt 0.187500 0.625000
vt 0.125000 0.625000
vt 0.500000 0.937500
vt 0.437500 0.937500
vt 0.823002 0.314162
vt 0.760502 0.314162
vt 0.684512 0.666708
vt 0.622012 0.729208
vt 0.622012 0.666708
vt 0.787571 0.244961
vt 0.725071 0.244961
vt 0.699028 0.192963
vt 0.636528 0.255463
vt 0.636528 0.192963
vt 0.827104 0.133663
vt 0.764604 0.133663
vt 0.635502 0.126662
vt 0.698002 0.189162
vt 0.635502 0.189162
vt 0.500000 0.437500
vt 0.437500 0.437500
vt 0.312500 0.750000
vt 0.250000 0.750000
vt 0.688013 0.658557
vt 0.625513 0.721057
vt 0.625513 0.658557
vt 0.827104 0.258663
vt 0.764604 0.258663
vt 0.635502 0.251662
vt 0.812500 0.687500
vt 0.750000 0.687500
vt 0.125000 0.687500
vt 0.778819 0.241160
vt 0.716319 0.241160
vt 0.700778 0.190912
vt 0.638278 0.253412
vt 0.638278 0.190912
vt 0.702104 0.258663
vt 0.687500 0.687500
vt 0.500000 0.687500
vt 0.437500 0.687500
vt 0.885502 0.251662
vt 0.823002 0.251662
vt 0.375000 0.687500
vt 0.312500 0.687500
vt 0.686262 0.665258
vt 0.623762 0.727758
vt 0.623762 0.665258
vt 0.312500 0.500000
vt 0.250000 0.562500
vt 0.250000 0.500000
vt 0.823002 0.064162
vt 0.760502 0.126662
vt 0.760502 0.064162
vt 0.770067 0.238260
vt 0.707567 0.238260
vt 0.699028 0.191513
vt 0.636528 0.254013
vt 0.636528 0.191513
vt 0.698002 0.064162
vt 0.698002 0.126662
vt 0.187500 0.500000
vt 0.187500 0.562500
vt 0.500000 0.187500
vt 0.437500 0.187500
vt 0.691513 0.657108
vt 0.629013 0.719608
vt 0.629013 0.657108
vt 0.773055 0.568052
vt 0.773055 0.630552
vt 0.710555 0.630552
vt 0.773055 0.574452
vt 0.773055 0.636952
vt 0.710555 0.636952
vt 0.625000 0.812500
vt 0.390452 0.450778
vt 0.767804 0.571853
vt 0.767804 0.634353
vt 0.705304 0.634353
vt 0.771305 0.569501
vt 0.771305 0.632001
vt 0.708805 0.632001
vt 0.885502 0.189162
vt 0.375000 0.625000
vt 0.625000 0.562500
vt 0.390452 0.200778
vt 0.699028 0.129013
vt 0.700778 0.128412
vt 0.700778 0.128713
vt 0.700778 0.191213
vt 0.638278 0.191213
vt 0.700778 0.126361
vt 0.778819 0.178660
vt 0.770067 0.175760
vt 0.784070 0.180109
vt 0.787571 0.182461
vt 0.644555 0.127599
vt 0.707055 0.127599
vt 0.707055 0.190098
vt 0.700778 0.197613
vt 0.700778 0.260113
vt 0.638278 0.260113
vt 0.812500 0.625000
vt 0.500000 0.875000
vt 0.625000 0.937500
vt 0.562500 0.937500
vt 0.644555 0.122949
vt 0.707055 0.122949
vt 0.707055 0.185449
vt 0.699028 0.194713
vt 0.699028 0.257213
vt 0.636528 0.257213
vt 0.827104 0.196163
vt 0.500000 0.375000
vt 0.625000 0.375000
vt 0.625000 0.437500
vt 0.562500 0.437500
vt 0.648055 0.129650
vt 0.710555 0.129650
vt 0.710555 0.192150
vt 0.699028 0.196163
vt 0.699028 0.258663
vt 0.636528 0.258663
vt 0.500000 0.625000
vt 0.625000 0.687500
vt 0.562500 0.687500
vt 0.649806 0.123250
vt 0.712306 0.123250
vt 0.712306 0.185750
vt 0.700778 0.193264
vt 0.700778 0.255764
vt 0.638278 0.255764
vt 0.500000 0.125000
vt 0.390452 0.325778
vt 0.327952 0.325778
vn -0.4381 -0.4199 -0.7948
vn 0.4381 -0.4199 0.7948
vn 0.3088 0.6896 0.6551
vn -0.3232 -0.7696 0.5507
vn 0.4143 0.4051 0.8150
vn -0.4143 0.4051 -0.8150
vn 0.0000 -1.0000 0.0000
vn 0.3754 0.9037 -0.2058
vn -0.8003 -0.4187 0.4292
vn 0.8003 -0.4187 -0.4292
vn -0.6045 0.7244 -0.3313
vn 0.5665 -0.7662 -0.3035
vn 0.8186 0.4069 -0.4054
vn -0.8186 0.4069 0.4054
vn -0.8961 0.0000 0.4438
vn 0.8961 0.0000 -0.4438
vn -0.4531 0.0000 -0.8914
vn 0.4531 0.0000 0.8914
vn 0.4937 -0.7878 -0.3684
vn -0.4937 -0.7878 0.3684
vn 0.3731 -0.7882 0.4894
vn -0.3731 -0.7882 -0.4894
vn -0.3731 -0.7882 0.4894
vn -0.4531 0.0000 0.8914
vn -0.1779 0.9087 -0.3775
vn -0.4633 -0.8160 -0.3457
vn -0.4381 -0.4199 0.7948
vn -0.3534 0.7335 0.5806
vn -0.4143 0.4051 0.8150
vn 0.3731 -0.7882 -0.4894
vn 0.4531 0.0000 -0.8914
vn 0.5826 0.7359 -0.3450
vn 0.4381 -0.4199 -0.7948
vn 0.3523 -0.8139 0.4621
vn 0.4143 0.4051 -0.8150
vn 0.5826 0.7359 0.3450
vn -0.1779 0.9087 0.3775
vn -0.4633 -0.8160 0.3457
vn 0.4937 -0.7878 0.3684
vn 0.8961 0.0000 0.4438
vn 0.3754 0.9037 0.2058
vn 0.8003 -0.4187 0.4292
vn -0.6045 0.7244 0.3313
vn 0.5665 -0.7662 0.3035
vn 0.8186 0.4069 0.4054
vn 0.3523 -0.8139 -0.4621
vn -0.3534 0.7335 -0.5806
vn -0.4937 -0.7878 -0.3684
vn -0.8961 0.0000 -0.4438
vn 0.3088 0.6896 -0.6551
vn -0.3232 -0.7696 -0.5507
vn -0.8003 -0.4187 -0.4292
vn -0.8186 0.4069 -0.4054
vn -0.4200 -0.3752 -0.8263
vn 0.4200 -0.3752 0.8263
vn 0.3534 0.7335 0.5806
vn -0.3523 -0.8139 0.4621
vn 0.4628 0.4559 0.7602
vn -0.4628 0.4559 -0.7602
vn 0.1779 0.9087 -0.3775
vn -0.8300 -0.3769 0.4111
vn 0.8300 -0.3769 -0.4111
vn -0.5826 0.7359 -0.3450
vn 0.4633 -0.8160 -0.3457
vn 0.7663 0.4548 -0.4538
vn -0.7663 0.4548 0.4538
vn 0.6006 -0.7318 -0.3221
vn -0.6006 -0.7318 0.3221
vn 0.3301 -0.7297 0.5989
vn -0.3301 -0.7297 -0.5989
vn -0.3301 -0.7297 0.5989
vn -0.3754 0.9037 -0.2058
vn -0.5665 -0.7662 -0.3035
vn -0.4200 -0.3752 0.8263
vn -0.3088 0.6896 0.6551
vn -0.4628 0.4559 0.7602
vn 0.3301 -0.7297 -0.5989
vn 0.6045 0.7244 -0.3313
vn 0.4200 -0.3752 -0.8263
vn 0.3232 -0.7696 0.5507
vn 0.4628 0.4559 -0.7602
vn 0.6045 0.7244 0.3313
vn -0.3754 0.9037 0.2058
vn -0.5665 -0.7662 0.3035
vn 0.6006 -0.7318 0.3221
vn 0.1779 0.9087 0.3775
vn 0.8300 -0.3769 0.4111
vn -0.5826 0.7359 0.3450
vn 0.4633 -0.8160 0.3457
vn 0.7663 0.4548 0.4538
vn 0.3232 -0.7696 -0.5507
vn -0.3088 0.6896 -0.6551
vn -0.6006 -0.7318 -0.3221
vn 0.3534 0.7335 -0.5806
vn -0.3523 -0.8139 -0.4621
vn -0.8300 -0.3769 -0.4111
vn -0.7663 0.4548 -0.4538
usemtl マテリアル
s off
f 10/1/1 39/2/1 35/3/1
f 12/4/2 40/5/2 37/6/2
f 47/7/3 6/8/3 51/9/3
f 48/10/4 1/11/4 49/12/4
f 30/13/5 16/14/5 31/15/5
f 28/16/6 14/17/6 32/18/6
f 56/19/7 26/20/7 43/21/7
f 58/22/8 25/23/8 45/24/8
f 9/25/9 41/26/9 38/27/9
f 11/28/10 42/29/10 36/30/10
f 4/31/11 44/32/11 55/33/11
f 7/34/12 46/35/12 57/36/12
f 29/37/13 22/38/13 33/39/13
f 27/40/14 20/41/14 34/42/14
f 27/43/15 24/44/15 9/45/15
f 29/46/16 23/47/16 11/48/16
f 28/49/17 18/50/17 10/51/17
f 30/52/18 17/53/18 12/54/18
f 36/55/19 21/56/19 7/57/19
f 38/58/20 19/59/20 1/60/20
f 37/61/21 15/62/21 5/63/21
f 35/64/22 13/65/22 3/66/22
f 15/62/23 38/67/23 1/68/23
f 31/69/24 9/70/24 17/71/24
f 55/72/25 25/23/25 53/73/25
f 3/74/26 43/75/26 19/76/26
f 40/5/27 9/77/27 38/78/27
f 47/7/28 2/79/28 16/80/28
f 16/81/29 27/82/29 31/83/29
f 13/65/30 36/84/30 7/85/30
f 32/86/31 11/87/31 18/88/31
f 57/89/7 26/20/7 54/90/7
f 8/91/32 45/92/32 22/93/32
f 39/2/33 11/94/33 36/95/33
f 48/10/34 5/96/34 15/97/34
f 14/98/35 29/99/35 32/100/35
f 26/20/7 52/101/7 48/102/7
f 45/92/36 6/103/36 22/93/36
f 25/23/37 50/104/37 47/105/37
f 43/75/38 1/106/38 19/76/38
f 21/56/39 37/107/39 5/108/39
f 33/109/40 12/110/40 23/111/40
f 26/20/7 49/112/7 43/21/7
f 25/23/41 51/113/41 45/24/41
f 42/29/42 12/114/42 37/115/42
f 44/32/43 2/116/43 50/117/43
f 46/35/44 5/118/44 52/119/44
f 22/120/45 30/121/45 33/122/45
f 7/123/46 54/124/46 13/125/46
f 4/126/47 53/127/47 14/128/47
f 19/59/48 35/129/48 3/130/48
f 34/131/49 10/132/49 24/133/49
f 8/134/50 53/127/50 58/135/50
f 3/136/51 54/124/51 56/137/51
f 41/26/52 10/138/52 35/139/52
f 20/140/53 28/141/53 34/142/53
f 10/143/54 18/144/54 39/145/54
f 12/146/55 17/147/55 40/148/55
f 47/7/56 16/80/56 6/8/56
f 48/10/57 15/97/57 1/11/57
f 30/13/58 6/149/58 16/14/58
f 28/16/59 4/150/59 14/17/59
f 56/19/7 54/90/7 26/20/7
f 58/22/60 53/73/60 25/23/60
f 9/151/61 24/152/61 41/153/61
f 11/154/62 23/155/62 42/156/62
f 4/31/63 20/157/63 44/32/63
f 7/34/64 21/158/64 46/35/64
f 29/37/65 8/159/65 22/38/65
f 27/40/66 2/160/66 20/41/66
f 27/161/15 34/131/15 24/133/15
f 29/162/16 33/109/16 23/111/16
f 28/163/17 32/164/17 18/165/17
f 30/166/18 31/69/18 17/71/18
f 36/55/67 42/167/67 21/56/67
f 38/58/68 41/168/68 19/59/68
f 37/61/69 40/169/69 15/62/69
f 35/64/70 39/170/70 13/65/70
f 15/171/71 40/172/71 38/173/71
f 31/174/24 27/175/24 9/176/24
f 55/72/72 44/177/72 25/23/72
f 3/74/73 56/137/73 43/75/73
f 40/5/74 17/178/74 9/77/74
f 47/7/75 50/117/75 2/79/75
f 16/14/76 2/179/76 27/180/76
f 13/181/77 39/182/77 36/183/77
f 32/184/31 29/185/31 11/186/31
f 57/89/7 46/187/7 26/20/7
f 8/91/78 58/135/78 45/92/78
f 39/2/79 18/188/79 11/94/79
f 48/10/80 52/119/80 5/96/80
f 14/189/81 8/190/81 29/191/81
f 26/20/7 46/187/7 52/101/7
f 45/92/82 51/9/82 6/103/82
f 25/23/83 44/177/83 50/104/83
f 43/75/84 49/12/84 1/106/84
f 21/192/85 42/193/85 37/194/85
f 33/195/40 30/196/40 12/197/40
f 26/20/7 48/102/7 49/112/7
f 25/23/86 47/105/86 51/113/86
f 42/29/87 23/198/87 12/114/87
f 44/32/88 20/157/88 2/116/88
f 46/35/89 21/158/89 5/118/89
f 22/38/90 6/199/90 30/200/90
f 7/123/91 57/36/91 54/124/91
f 4/126/92 55/33/92 53/127/92
f 19/201/93 41/202/93 35/203/93
f 34/204/49 28/205/49 10/206/49
f 8/134/94 14/128/94 53/127/94
f 3/136/95 13/125/95 54/124/95
f 41/26/96 24/207/96 10/138/96
f 20/41/97 4/208/97 28/209/97
