# Blender v3.5.0 OBJ File: ''
# www.blender.org
mtllib EggDebris.mtl
o 立方体
v 0.674544 -0.557703 -0.042869
v 0.000000 -0.947421 0.123038
v 0.000000 0.979574 -0.381234
v 0.428544 0.699951 -0.288869
v 0.194232 0.979574 -0.472781
v 0.674544 0.040063 -0.042869
v 0.000000 0.699951 -0.028001
v 0.000000 0.040063 0.300000
v -0.674544 -0.557703 -0.042869
v -0.674544 0.040063 -0.042869
v 0.000000 -0.557703 0.300000
v -0.428544 0.699951 -0.288869
v -0.194232 0.979574 -0.472781
vt 0.760502 0.251662
vt 0.698002 0.314162
vt 0.698002 0.251662
vt 0.562500 0.812500
vt 0.625000 0.875000
vt 0.562500 0.875000
vt 0.695527 0.140364
vt 0.633027 0.202864
vt 0.633027 0.140364
vt 0.700778 0.188861
vt 0.638278 0.251361
vt 0.638278 0.188861
vt 0.823002 0.314162
vt 0.760502 0.314162
vt 0.684512 0.666708
vt 0.622012 0.729208
vt 0.622012 0.666708
vt 0.773055 0.574452
vt 0.773055 0.636952
vt 0.710555 0.636952
vt 0.625000 0.812500
vt 0.700778 0.126361
vt 0.700778 0.197613
vt 0.700778 0.260113
vt 0.638278 0.260113
vt 0.437500 0.875000
vt 0.500000 0.875000
vt 0.500000 0.937500
vt 0.823002 0.251662
vt 0.625000 0.937500
vt 0.562500 0.937500
vn 0.3088 0.6896 0.6551
vn 0.4143 0.4051 0.8150
vn 0.4531 0.0000 0.8914
vn -0.4531 0.0000 0.8914
vn -0.3534 0.7335 0.5806
vn -0.4143 0.4051 0.8150
vn 0.4200 -0.3752 0.8263
vn 0.3534 0.7335 0.5806
vn 0.4628 0.4559 0.7602
vn -0.4200 -0.3752 0.8263
vn -0.3088 0.6896 0.6551
vn -0.4628 0.4559 0.7602
usemtl マテリアル
s 1
f 3/1/1 4/2/1 5/3/1
f 6/4/2 7/5/2 8/6/2
f 6/7/3 11/8/3 1/9/3
f 8/10/4 9/11/4 11/12/4
f 3/1/5 12/13/5 7/14/5
f 7/15/6 10/16/6 8/17/6
f 1/18/7 11/19/7 2/20/7
f 3/1/8 7/14/8 4/2/8
f 6/4/9 4/21/9 7/5/9
f 6/22/3 8/10/3 11/12/3
f 8/23/4 10/24/4 9/25/4
f 2/26/10 11/27/10 9/28/10
f 3/1/11 13/29/11 12/13/11
f 7/5/12 12/30/12 10/31/12
