# Blender v3.5.0 OBJ File: ''
# www.blender.org
mtllib Horn.mtl
o 立方体_立方体.011
v -0.000000 -0.564002 0.487871
v -0.346051 0.000000 0.487871
v 0.000000 0.000000 0.004348
v 0.000000 0.564002 0.487871
v 0.346051 -0.000000 0.487871
v 0.000000 0.000000 3.000078
vt 0.904568 0.094663
vt 0.904568 0.132163
vt 0.867068 0.094663
vt 0.890242 0.081386
vt 0.927742 0.118887
vt 0.890242 0.118887
vt 0.827707 0.152589
vt 0.803583 0.152589
vt 0.827707 0.128465
vt 0.875857 0.127805
vt 0.851734 0.151929
vt 0.851734 0.127805
vt 0.942069 0.094663
vt 0.926266 0.121678
vt 0.888765 0.121678
vt 0.912389 0.095251
vt 0.851830 0.152589
vt 0.826942 0.128562
vt 0.802819 0.152685
vt 0.802819 0.128562
vn -0.7276 -0.4465 -0.5208
vn -0.7276 0.4465 -0.5208
vn 0.7276 -0.4465 -0.5208
vn 0.7276 0.4465 -0.5208
vn -0.8465 -0.5194 0.1166
vn -0.8465 0.5194 0.1166
vn 0.8465 -0.5194 0.1166
vn 0.8465 0.5194 0.1166
usemtl マテリアル.001
s 1
f 1/1/1 2/2/1 3/3/1
f 2/4/2 4/5/2 3/6/2
f 1/7/3 3/8/3 5/9/3
f 4/10/4 5/11/4 3/12/4
f 1/1/5 6/13/5 2/2/5
f 4/14/6 2/15/6 6/16/6
f 1/7/7 5/9/7 6/17/7
f 4/18/8 6/19/8 5/20/8
