{
	"asset":{
		"generator":"Khronos glTF Blender I/O v3.5.30",
		"version":"2.0"
	},
	"scene":0,
	"scenes":[
		{
			"name":"Scene",
			"nodes":[
				10
			]
		}
	],
	"nodes":[
		{
			"name":"Bone.008",
			"rotation":[
				5.200342823030724e-09,
				5.029260563560456e-08,
				-0.028483375906944275,
				0.9995942711830139
			],
			"scale":[
				1.0000001192092896,
				1.0000001192092896,
				1
			],
			"translation":[
				-1.2962259461346548e-06,
				0.7812313437461853,
				-8.236611392931081e-11
			]
		},
		{
			"children":[
				0
			],
			"name":"Bone.005",
			"rotation":[
				-2.7585230100157787e-08,
				6.535278629371533e-08,
				-0.8348255157470703,
				0.5505146980285645
			],
			"scale":[
				1.0000001192092896,
				1,
				1
			],
			"translation":[
				-7.147790483941208e-07,
				1.0896570682525635,
				-4.523315055848798e-11
			]
		},
		{
			"children":[
				1
			],
			"name":"Bone.004",
			"rotation":[
				3.086011091113505e-08,
				-2.0518188037499385e-08,
				0.37936943769454956,
				0.9252452850341797
			],
			"scale":[
				1,
				0.9999999403953552,
				1
			],
			"translation":[
				-0.05191987752914429,
				2.5101542472839355,
				9.438423376195715e-10
			]
		},
		{
			"name":"Bone.007",
			"rotation":[
				6.455240963987308e-08,
				4.3208910938119516e-07,
				0.15501932799816132,
				0.9879114627838135
			],
			"scale":[
				1,
				0.9999999403953552,
				1
			],
			"translation":[
				4.494789607178973e-07,
				0.6148456335067749,
				1.709565822238801e-10
			]
		},
		{
			"children":[
				3
			],
			"name":"Bone.006",
			"rotation":[
				-3.1613080864190124e-07,
				-2.4864368697308237e-07,
				-0.7182945609092712,
				0.695739209651947
			],
			"scale":[
				1,
				0.9999999403953552,
				1
			],
			"translation":[
				-0.05191987752914429,
				2.5101542472839355,
				9.438423376195715e-10
			]
		},
		{
			"children":[
				2,
				4
			],
			"name":"Bone.001",
			"rotation":[
				2.3998105724842844e-09,
				-1.456137255217982e-07,
				-0.023896915838122368,
				0.9997144341468811
			],
			"scale":[
				0.9999998807907104,
				0.9999999403953552,
				1
			],
			"translation":[
				-5.980522388426834e-08,
				1.7766289710998535,
				3.7471892255780404e-10
			]
		},
		{
			"children":[
				5
			],
			"name":"Bone",
			"rotation":[
				-3.46197168710205e-08,
				1.0272245987152928e-07,
				-0.09626388549804688,
				0.9953558444976807
			],
			"scale":[
				0.9999999403953552,
				1,
				1
			],
			"translation":[
				0.0613197386264801,
				2.2900643348693848,
				0.0028200671076774597
			]
		},
		{
			"name":"Bone.009",
			"rotation":[
				-0.6378406286239624,
				0.3014633357524872,
				-0.6729803085327148,
				0.22220876812934875
			],
			"scale":[
				1,
				1.0000001192092896,
				1
			],
			"translation":[
				0.5174962282180786,
				0.8973267078399658,
				1.051554560661316
			]
		},
		{
			"name":"Bone.010",
			"rotation":[
				0.6394189596176147,
				0.31253528594970703,
				0.5905328392982483,
				0.38044223189353943
			],
			"scale":[
				1,
				1.000000238418579,
				1.0000009536743164
			],
			"translation":[
				0.5085515379905701,
				0.9011125564575195,
				-1.168054223060608
			]
		},
		{
			"mesh":0,
			"name":"\u30c8\u30ea\u30b1\u30e9",
			"skin":0
		},
		{
			"children":[
				9,
				6,
				7,
				8
			],
			"name":"\u30a2\u30fc\u30de\u30c1\u30e5\u30a2",
			"rotation":[
				0,
				-0.7071068286895752,
				0,
				0.7071067094802856
			]
		}
	],
	"animations":[
		{
			"channels":[
				{
					"sampler":0,
					"target":{
						"node":6,
						"path":"translation"
					}
				},
				{
					"sampler":1,
					"target":{
						"node":6,
						"path":"rotation"
					}
				},
				{
					"sampler":2,
					"target":{
						"node":6,
						"path":"scale"
					}
				},
				{
					"sampler":3,
					"target":{
						"node":5,
						"path":"translation"
					}
				},
				{
					"sampler":4,
					"target":{
						"node":5,
						"path":"rotation"
					}
				},
				{
					"sampler":5,
					"target":{
						"node":5,
						"path":"scale"
					}
				},
				{
					"sampler":6,
					"target":{
						"node":2,
						"path":"translation"
					}
				},
				{
					"sampler":7,
					"target":{
						"node":2,
						"path":"rotation"
					}
				},
				{
					"sampler":8,
					"target":{
						"node":2,
						"path":"scale"
					}
				},
				{
					"sampler":9,
					"target":{
						"node":1,
						"path":"translation"
					}
				},
				{
					"sampler":10,
					"target":{
						"node":1,
						"path":"rotation"
					}
				},
				{
					"sampler":11,
					"target":{
						"node":1,
						"path":"scale"
					}
				},
				{
					"sampler":12,
					"target":{
						"node":0,
						"path":"translation"
					}
				},
				{
					"sampler":13,
					"target":{
						"node":0,
						"path":"rotation"
					}
				},
				{
					"sampler":14,
					"target":{
						"node":0,
						"path":"scale"
					}
				},
				{
					"sampler":15,
					"target":{
						"node":4,
						"path":"translation"
					}
				},
				{
					"sampler":16,
					"target":{
						"node":4,
						"path":"rotation"
					}
				},
				{
					"sampler":17,
					"target":{
						"node":4,
						"path":"scale"
					}
				},
				{
					"sampler":18,
					"target":{
						"node":3,
						"path":"translation"
					}
				},
				{
					"sampler":19,
					"target":{
						"node":3,
						"path":"rotation"
					}
				},
				{
					"sampler":20,
					"target":{
						"node":3,
						"path":"scale"
					}
				},
				{
					"sampler":21,
					"target":{
						"node":7,
						"path":"translation"
					}
				},
				{
					"sampler":22,
					"target":{
						"node":7,
						"path":"rotation"
					}
				},
				{
					"sampler":23,
					"target":{
						"node":7,
						"path":"scale"
					}
				},
				{
					"sampler":24,
					"target":{
						"node":8,
						"path":"translation"
					}
				},
				{
					"sampler":25,
					"target":{
						"node":8,
						"path":"rotation"
					}
				},
				{
					"sampler":26,
					"target":{
						"node":8,
						"path":"scale"
					}
				}
			],
			"name":"00_Move",
			"samplers":[
				{
					"input":8,
					"interpolation":"LINEAR",
					"output":9
				},
				{
					"input":8,
					"interpolation":"LINEAR",
					"output":10
				},
				{
					"input":8,
					"interpolation":"LINEAR",
					"output":11
				},
				{
					"input":8,
					"interpolation":"LINEAR",
					"output":12
				},
				{
					"input":8,
					"interpolation":"LINEAR",
					"output":13
				},
				{
					"input":8,
					"interpolation":"LINEAR",
					"output":14
				},
				{
					"input":8,
					"interpolation":"LINEAR",
					"output":15
				},
				{
					"input":8,
					"interpolation":"LINEAR",
					"output":16
				},
				{
					"input":8,
					"interpolation":"LINEAR",
					"output":17
				},
				{
					"input":8,
					"interpolation":"LINEAR",
					"output":18
				},
				{
					"input":8,
					"interpolation":"LINEAR",
					"output":19
				},
				{
					"input":8,
					"interpolation":"LINEAR",
					"output":20
				},
				{
					"input":8,
					"interpolation":"LINEAR",
					"output":21
				},
				{
					"input":8,
					"interpolation":"LINEAR",
					"output":22
				},
				{
					"input":8,
					"interpolation":"LINEAR",
					"output":23
				},
				{
					"input":8,
					"interpolation":"LINEAR",
					"output":24
				},
				{
					"input":8,
					"interpolation":"LINEAR",
					"output":25
				},
				{
					"input":8,
					"interpolation":"LINEAR",
					"output":26
				},
				{
					"input":8,
					"interpolation":"LINEAR",
					"output":27
				},
				{
					"input":8,
					"interpolation":"LINEAR",
					"output":28
				},
				{
					"input":8,
					"interpolation":"LINEAR",
					"output":29
				},
				{
					"input":8,
					"interpolation":"LINEAR",
					"output":30
				},
				{
					"input":8,
					"interpolation":"LINEAR",
					"output":31
				},
				{
					"input":8,
					"interpolation":"LINEAR",
					"output":32
				},
				{
					"input":8,
					"interpolation":"LINEAR",
					"output":33
				},
				{
					"input":8,
					"interpolation":"LINEAR",
					"output":34
				},
				{
					"input":8,
					"interpolation":"LINEAR",
					"output":35
				}
			]
		}
	],
	"materials":[
		{
			"doubleSided":true,
			"name":"\u30de\u30c6\u30ea\u30a2\u30eb",
			"pbrMetallicRoughness":{
				"baseColorTexture":{
					"index":0
				},
				"metallicFactor":0,
				"roughnessFactor":0.5
			}
		}
	],
	"meshes":[
		{
			"name":"\u5e73\u9762.002",
			"primitives":[
				{
					"attributes":{
						"POSITION":0,
						"TEXCOORD_0":1,
						"TEXCOORD_1":2,
						"NORMAL":3,
						"JOINTS_0":4,
						"WEIGHTS_0":5
					},
					"indices":6,
					"material":0
				}
			]
		}
	],
	"textures":[
		{
			"sampler":0,
			"source":0
		}
	],
	"images":[
		{
			"mimeType":"image/png",
			"name":"PlayerBody",
			"uri":"PlayerBody.png"
		}
	],
	"skins":[
		{
			"inverseBindMatrices":7,
			"joints":[
				6,
				5,
				2,
				1,
				0,
				4,
				3,
				7,
				8
			],
			"name":"\u30a2\u30fc\u30de\u30c1\u30e5\u30a2"
		}
	],
	"accessors":[
		{
			"bufferView":0,
			"componentType":5126,
			"count":1872,
			"max":[
				1.7739700078964233,
				10.072236061096191,
				3.6384944915771484
			],
			"min":[
				-1.6202372312545776,
				0.5767885446548462,
				-3.7889859676361084
			],
			"type":"VEC3"
		},
		{
			"bufferView":1,
			"componentType":5126,
			"count":1872,
			"type":"VEC2"
		},
		{
			"bufferView":2,
			"componentType":5126,
			"count":1872,
			"type":"VEC2"
		},
		{
			"bufferView":3,
			"componentType":5126,
			"count":1872,
			"type":"VEC3"
		},
		{
			"bufferView":4,
			"componentType":5121,
			"count":1872,
			"type":"VEC4"
		},
		{
			"bufferView":5,
			"componentType":5126,
			"count":1872,
			"type":"VEC4"
		},
		{
			"bufferView":6,
			"componentType":5123,
			"count":2256,
			"type":"SCALAR"
		},
		{
			"bufferView":7,
			"componentType":5126,
			"count":9,
			"type":"MAT4"
		},
		{
			"bufferView":8,
			"componentType":5126,
			"count":21,
			"max":[
				0.8333333333333334
			],
			"min":[
				0
			],
			"type":"SCALAR"
		},
		{
			"bufferView":9,
			"componentType":5126,
			"count":21,
			"type":"VEC3"
		},
		{
			"bufferView":10,
			"componentType":5126,
			"count":21,
			"type":"VEC4"
		},
		{
			"bufferView":11,
			"componentType":5126,
			"count":21,
			"type":"VEC3"
		},
		{
			"bufferView":12,
			"componentType":5126,
			"count":21,
			"type":"VEC3"
		},
		{
			"bufferView":13,
			"componentType":5126,
			"count":21,
			"type":"VEC4"
		},
		{
			"bufferView":14,
			"componentType":5126,
			"count":21,
			"type":"VEC3"
		},
		{
			"bufferView":15,
			"componentType":5126,
			"count":21,
			"type":"VEC3"
		},
		{
			"bufferView":16,
			"componentType":5126,
			"count":21,
			"type":"VEC4"
		},
		{
			"bufferView":17,
			"componentType":5126,
			"count":21,
			"type":"VEC3"
		},
		{
			"bufferView":18,
			"componentType":5126,
			"count":21,
			"type":"VEC3"
		},
		{
			"bufferView":19,
			"componentType":5126,
			"count":21,
			"type":"VEC4"
		},
		{
			"bufferView":20,
			"componentType":5126,
			"count":21,
			"type":"VEC3"
		},
		{
			"bufferView":21,
			"componentType":5126,
			"count":21,
			"type":"VEC3"
		},
		{
			"bufferView":22,
			"componentType":5126,
			"count":21,
			"type":"VEC4"
		},
		{
			"bufferView":23,
			"componentType":5126,
			"count":21,
			"type":"VEC3"
		},
		{
			"bufferView":24,
			"componentType":5126,
			"count":21,
			"type":"VEC3"
		},
		{
			"bufferView":25,
			"componentType":5126,
			"count":21,
			"type":"VEC4"
		},
		{
			"bufferView":26,
			"componentType":5126,
			"count":21,
			"type":"VEC3"
		},
		{
			"bufferView":27,
			"componentType":5126,
			"count":21,
			"type":"VEC3"
		},
		{
			"bufferView":28,
			"componentType":5126,
			"count":21,
			"type":"VEC4"
		},
		{
			"bufferView":29,
			"componentType":5126,
			"count":21,
			"type":"VEC3"
		},
		{
			"bufferView":30,
			"componentType":5126,
			"count":21,
			"type":"VEC3"
		},
		{
			"bufferView":31,
			"componentType":5126,
			"count":21,
			"type":"VEC4"
		},
		{
			"bufferView":32,
			"componentType":5126,
			"count":21,
			"type":"VEC3"
		},
		{
			"bufferView":33,
			"componentType":5126,
			"count":21,
			"type":"VEC3"
		},
		{
			"bufferView":34,
			"componentType":5126,
			"count":21,
			"type":"VEC4"
		},
		{
			"bufferView":35,
			"componentType":5126,
			"count":21,
			"type":"VEC3"
		}
	],
	"bufferViews":[
		{
			"buffer":0,
			"byteLength":22464,
			"byteOffset":0,
			"target":34962
		},
		{
			"buffer":0,
			"byteLength":14976,
			"byteOffset":22464,
			"target":34962
		},
		{
			"buffer":0,
			"byteLength":14976,
			"byteOffset":37440,
			"target":34962
		},
		{
			"buffer":0,
			"byteLength":22464,
			"byteOffset":52416,
			"target":34962
		},
		{
			"buffer":0,
			"byteLength":7488,
			"byteOffset":74880,
			"target":34962
		},
		{
			"buffer":0,
			"byteLength":29952,
			"byteOffset":82368,
			"target":34962
		},
		{
			"buffer":0,
			"byteLength":4512,
			"byteOffset":112320,
			"target":34963
		},
		{
			"buffer":0,
			"byteLength":576,
			"byteOffset":116832
		},
		{
			"buffer":0,
			"byteLength":84,
			"byteOffset":117408
		},
		{
			"buffer":0,
			"byteLength":252,
			"byteOffset":117492
		},
		{
			"buffer":0,
			"byteLength":336,
			"byteOffset":117744
		},
		{
			"buffer":0,
			"byteLength":252,
			"byteOffset":118080
		},
		{
			"buffer":0,
			"byteLength":252,
			"byteOffset":118332
		},
		{
			"buffer":0,
			"byteLength":336,
			"byteOffset":118584
		},
		{
			"buffer":0,
			"byteLength":252,
			"byteOffset":118920
		},
		{
			"buffer":0,
			"byteLength":252,
			"byteOffset":119172
		},
		{
			"buffer":0,
			"byteLength":336,
			"byteOffset":119424
		},
		{
			"buffer":0,
			"byteLength":252,
			"byteOffset":119760
		},
		{
			"buffer":0,
			"byteLength":252,
			"byteOffset":120012
		},
		{
			"buffer":0,
			"byteLength":336,
			"byteOffset":120264
		},
		{
			"buffer":0,
			"byteLength":252,
			"byteOffset":120600
		},
		{
			"buffer":0,
			"byteLength":252,
			"byteOffset":120852
		},
		{
			"buffer":0,
			"byteLength":336,
			"byteOffset":121104
		},
		{
			"buffer":0,
			"byteLength":252,
			"byteOffset":121440
		},
		{
			"buffer":0,
			"byteLength":252,
			"byteOffset":121692
		},
		{
			"buffer":0,
			"byteLength":336,
			"byteOffset":121944
		},
		{
			"buffer":0,
			"byteLength":252,
			"byteOffset":122280
		},
		{
			"buffer":0,
			"byteLength":252,
			"byteOffset":122532
		},
		{
			"buffer":0,
			"byteLength":336,
			"byteOffset":122784
		},
		{
			"buffer":0,
			"byteLength":252,
			"byteOffset":123120
		},
		{
			"buffer":0,
			"byteLength":252,
			"byteOffset":123372
		},
		{
			"buffer":0,
			"byteLength":336,
			"byteOffset":123624
		},
		{
			"buffer":0,
			"byteLength":252,
			"byteOffset":123960
		},
		{
			"buffer":0,
			"byteLength":252,
			"byteOffset":124212
		},
		{
			"buffer":0,
			"byteLength":336,
			"byteOffset":124464
		},
		{
			"buffer":0,
			"byteLength":252,
			"byteOffset":124800
		}
	],
	"samplers":[
		{
			"magFilter":9729,
			"minFilter":9987
		}
	],
	"buffers":[
		{
			"byteLength":125052,
			"uri":"PlayerMove.bin"
		}
	]
}
