{
	"asset":{
		"generator":"Khronos glTF Blender I/O v3.5.30",
		"version":"2.0"
	},
	"scene":0,
	"scenes":[
		{
			"name":"Scene",
			"nodes":[
				4
			]
		}
	],
	"nodes":[
		{
			"name":"Bone.001",
			"rotation":[
				1.4783636004267464e-07,
				1.4292437811036507e-07,
				-0.7089268565177917,
				0.7052820324897766
			],
			"translation":[
				-2.886579864025407e-15,
				3.344536781311035,
				0
			]
		},
		{
			"children":[
				0
			],
			"name":"Bone",
			"translation":[
				-1.4253723621368408,
				-2.384500503540039,
				-5.369479083583428e-09
			]
		},
		{
			"name":"Bone.003",
			"rotation":[
				-0.49934855103492737,
				-0.5006506443023682,
				-0.499348521232605,
				0.5006505846977234
			],
			"scale":[
				0.9999999403953552,
				0.9999999403953552,
				1
			],
			"translation":[
				-1.4253723621368408,
				-2.384500503540039,
				-5.369479083583428e-09
			]
		},
		{
			"mesh":0,
			"name":"\u5e73\u9762",
			"skin":0
		},
		{
			"children":[
				3,
				1,
				2
			],
			"name":"\u30a2\u30fc\u30de\u30c1\u30e5\u30a2",
			"rotation":[
				0,
				-0.7071068286895752,
				0,
				0.7071068286895752
			]
		}
	],
	"animations":[
		{
			"channels":[
				{
					"sampler":0,
					"target":{
						"node":1,
						"path":"translation"
					}
				},
				{
					"sampler":1,
					"target":{
						"node":1,
						"path":"rotation"
					}
				},
				{
					"sampler":2,
					"target":{
						"node":1,
						"path":"scale"
					}
				},
				{
					"sampler":3,
					"target":{
						"node":0,
						"path":"translation"
					}
				},
				{
					"sampler":4,
					"target":{
						"node":0,
						"path":"rotation"
					}
				},
				{
					"sampler":5,
					"target":{
						"node":0,
						"path":"scale"
					}
				},
				{
					"sampler":6,
					"target":{
						"node":2,
						"path":"translation"
					}
				},
				{
					"sampler":7,
					"target":{
						"node":2,
						"path":"rotation"
					}
				},
				{
					"sampler":8,
					"target":{
						"node":2,
						"path":"scale"
					}
				}
			],
			"name":"Normal",
			"samplers":[
				{
					"input":7,
					"interpolation":"LINEAR",
					"output":8
				},
				{
					"input":7,
					"interpolation":"LINEAR",
					"output":9
				},
				{
					"input":7,
					"interpolation":"LINEAR",
					"output":10
				},
				{
					"input":7,
					"interpolation":"LINEAR",
					"output":11
				},
				{
					"input":7,
					"interpolation":"LINEAR",
					"output":12
				},
				{
					"input":7,
					"interpolation":"LINEAR",
					"output":13
				},
				{
					"input":7,
					"interpolation":"LINEAR",
					"output":14
				},
				{
					"input":7,
					"interpolation":"LINEAR",
					"output":15
				},
				{
					"input":7,
					"interpolation":"LINEAR",
					"output":16
				}
			]
		},
		{
			"channels":[
				{
					"sampler":0,
					"target":{
						"node":1,
						"path":"translation"
					}
				},
				{
					"sampler":1,
					"target":{
						"node":1,
						"path":"rotation"
					}
				},
				{
					"sampler":2,
					"target":{
						"node":1,
						"path":"scale"
					}
				},
				{
					"sampler":3,
					"target":{
						"node":0,
						"path":"translation"
					}
				},
				{
					"sampler":4,
					"target":{
						"node":0,
						"path":"rotation"
					}
				},
				{
					"sampler":5,
					"target":{
						"node":0,
						"path":"scale"
					}
				},
				{
					"sampler":6,
					"target":{
						"node":2,
						"path":"translation"
					}
				},
				{
					"sampler":7,
					"target":{
						"node":2,
						"path":"rotation"
					}
				},
				{
					"sampler":8,
					"target":{
						"node":2,
						"path":"scale"
					}
				}
			],
			"name":"Roar",
			"samplers":[
				{
					"input":17,
					"interpolation":"LINEAR",
					"output":18
				},
				{
					"input":17,
					"interpolation":"LINEAR",
					"output":19
				},
				{
					"input":17,
					"interpolation":"LINEAR",
					"output":20
				},
				{
					"input":17,
					"interpolation":"LINEAR",
					"output":21
				},
				{
					"input":17,
					"interpolation":"LINEAR",
					"output":22
				},
				{
					"input":17,
					"interpolation":"LINEAR",
					"output":23
				},
				{
					"input":17,
					"interpolation":"LINEAR",
					"output":24
				},
				{
					"input":17,
					"interpolation":"LINEAR",
					"output":25
				},
				{
					"input":17,
					"interpolation":"LINEAR",
					"output":26
				}
			]
		}
	],
	"materials":[
		{
			"doubleSided":true,
			"name":"Material",
			"pbrMetallicRoughness":{
				"baseColorTexture":{
					"index":0
				},
				"metallicFactor":0,
				"roughnessFactor":0.5
			}
		}
	],
	"meshes":[
		{
			"name":"\u5e73\u9762",
			"primitives":[
				{
					"attributes":{
						"POSITION":0,
						"TEXCOORD_0":1,
						"NORMAL":2,
						"JOINTS_0":3,
						"WEIGHTS_0":4
					},
					"indices":5,
					"material":0
				}
			]
		}
	],
	"textures":[
		{
			"sampler":0,
			"source":0
		}
	],
	"images":[
		{
			"mimeType":"image/png",
			"name":"enemy",
			"uri":"enemy.png"
		}
	],
	"skins":[
		{
			"inverseBindMatrices":6,
			"joints":[
				1,
				0,
				2
			],
			"name":"\u30a2\u30fc\u30de\u30c1\u30e5\u30a2"
		}
	],
	"accessors":[
		{
			"bufferView":0,
			"componentType":5126,
			"count":1038,
			"max":[
				2.589242696762085,
				5.024341106414795,
				4.914314270019531
			],
			"min":[
				-2.589242696762085,
				-3.108619451522827,
				-3.6660380363464355
			],
			"type":"VEC3"
		},
		{
			"bufferView":1,
			"componentType":5126,
			"count":1038,
			"type":"VEC2"
		},
		{
			"bufferView":2,
			"componentType":5126,
			"count":1038,
			"type":"VEC3"
		},
		{
			"bufferView":3,
			"componentType":5121,
			"count":1038,
			"type":"VEC4"
		},
		{
			"bufferView":4,
			"componentType":5126,
			"count":1038,
			"type":"VEC4"
		},
		{
			"bufferView":5,
			"componentType":5123,
			"count":1242,
			"type":"SCALAR"
		},
		{
			"bufferView":6,
			"componentType":5126,
			"count":3,
			"type":"MAT4"
		},
		{
			"bufferView":7,
			"componentType":5126,
			"count":1,
			"max":[
				0.041666666666666664
			],
			"min":[
				0.041666666666666664
			],
			"type":"SCALAR"
		},
		{
			"bufferView":8,
			"componentType":5126,
			"count":1,
			"type":"VEC3"
		},
		{
			"bufferView":9,
			"componentType":5126,
			"count":1,
			"type":"VEC4"
		},
		{
			"bufferView":10,
			"componentType":5126,
			"count":1,
			"type":"VEC3"
		},
		{
			"bufferView":11,
			"componentType":5126,
			"count":1,
			"type":"VEC3"
		},
		{
			"bufferView":12,
			"componentType":5126,
			"count":1,
			"type":"VEC4"
		},
		{
			"bufferView":13,
			"componentType":5126,
			"count":1,
			"type":"VEC3"
		},
		{
			"bufferView":14,
			"componentType":5126,
			"count":1,
			"type":"VEC3"
		},
		{
			"bufferView":15,
			"componentType":5126,
			"count":1,
			"type":"VEC4"
		},
		{
			"bufferView":16,
			"componentType":5126,
			"count":1,
			"type":"VEC3"
		},
		{
			"bufferView":17,
			"componentType":5126,
			"count":10,
			"max":[
				0.4166666666666667
			],
			"min":[
				0.041666666666666664
			],
			"type":"SCALAR"
		},
		{
			"bufferView":18,
			"componentType":5126,
			"count":10,
			"type":"VEC3"
		},
		{
			"bufferView":19,
			"componentType":5126,
			"count":10,
			"type":"VEC4"
		},
		{
			"bufferView":20,
			"componentType":5126,
			"count":10,
			"type":"VEC3"
		},
		{
			"bufferView":21,
			"componentType":5126,
			"count":10,
			"type":"VEC3"
		},
		{
			"bufferView":22,
			"componentType":5126,
			"count":10,
			"type":"VEC4"
		},
		{
			"bufferView":23,
			"componentType":5126,
			"count":10,
			"type":"VEC3"
		},
		{
			"bufferView":24,
			"componentType":5126,
			"count":10,
			"type":"VEC3"
		},
		{
			"bufferView":25,
			"componentType":5126,
			"count":10,
			"type":"VEC4"
		},
		{
			"bufferView":26,
			"componentType":5126,
			"count":10,
			"type":"VEC3"
		}
	],
	"bufferViews":[
		{
			"buffer":0,
			"byteLength":12456,
			"byteOffset":0,
			"target":34962
		},
		{
			"buffer":0,
			"byteLength":8304,
			"byteOffset":12456,
			"target":34962
		},
		{
			"buffer":0,
			"byteLength":12456,
			"byteOffset":20760,
			"target":34962
		},
		{
			"buffer":0,
			"byteLength":4152,
			"byteOffset":33216,
			"target":34962
		},
		{
			"buffer":0,
			"byteLength":16608,
			"byteOffset":37368,
			"target":34962
		},
		{
			"buffer":0,
			"byteLength":2484,
			"byteOffset":53976,
			"target":34963
		},
		{
			"buffer":0,
			"byteLength":192,
			"byteOffset":56460
		},
		{
			"buffer":0,
			"byteLength":4,
			"byteOffset":56652
		},
		{
			"buffer":0,
			"byteLength":12,
			"byteOffset":56656
		},
		{
			"buffer":0,
			"byteLength":16,
			"byteOffset":56668
		},
		{
			"buffer":0,
			"byteLength":12,
			"byteOffset":56684
		},
		{
			"buffer":0,
			"byteLength":12,
			"byteOffset":56696
		},
		{
			"buffer":0,
			"byteLength":16,
			"byteOffset":56708
		},
		{
			"buffer":0,
			"byteLength":12,
			"byteOffset":56724
		},
		{
			"buffer":0,
			"byteLength":12,
			"byteOffset":56736
		},
		{
			"buffer":0,
			"byteLength":16,
			"byteOffset":56748
		},
		{
			"buffer":0,
			"byteLength":12,
			"byteOffset":56764
		},
		{
			"buffer":0,
			"byteLength":40,
			"byteOffset":56776
		},
		{
			"buffer":0,
			"byteLength":120,
			"byteOffset":56816
		},
		{
			"buffer":0,
			"byteLength":160,
			"byteOffset":56936
		},
		{
			"buffer":0,
			"byteLength":120,
			"byteOffset":57096
		},
		{
			"buffer":0,
			"byteLength":120,
			"byteOffset":57216
		},
		{
			"buffer":0,
			"byteLength":160,
			"byteOffset":57336
		},
		{
			"buffer":0,
			"byteLength":120,
			"byteOffset":57496
		},
		{
			"buffer":0,
			"byteLength":120,
			"byteOffset":57616
		},
		{
			"buffer":0,
			"byteLength":160,
			"byteOffset":57736
		},
		{
			"buffer":0,
			"byteLength":120,
			"byteOffset":57896
		}
	],
	"samplers":[
		{
			"magFilter":9729,
			"minFilter":9987
		}
	],
	"buffers":[
		{
			"byteLength":58016,
			"uri":"Boss.bin"
		}
	]
}
